<svg width="292" height="292" viewBox="0 0 292 292" fill="none" xmlns="http://www.w3.org/2000/svg">
<mask id="mask0_1_410" style="mask-type:luminance" maskUnits="userSpaceOnUse" x="0" y="93" width="95" height="107">
<path d="M0 93.3334H94.6667V200H0V93.3334Z" fill="white"/>
</mask>
<g mask="url(#mask0_1_410)">
<mask id="mask1_1_410" style="mask-type:luminance" maskUnits="userSpaceOnUse" x="-11" y="-11" width="315" height="314">
<path d="M-10.9323 146L146.042 -10.9791L303.021 146L146.042 302.979L-10.9323 146Z" fill="white"/>
</mask>
<g mask="url(#mask1_1_410)">
<mask id="mask2_1_410" style="mask-type:luminance" maskUnits="userSpaceOnUse" x="-11" y="-11" width="315" height="314">
<path d="M-10.9323 146L146.042 -10.9791L303.021 146L146.042 302.979L-10.9323 146Z" fill="white"/>
</mask>
<g mask="url(#mask2_1_410)">
<path d="M7.90105 127.161L41.4948 93.5677L94.6198 146.693L42.1875 199.12L7.90105 164.839C-2.48958 154.443 -2.48958 137.552 7.90105 127.161Z" fill="#5DE7FF"/>
</g>
</g>
</g>
<mask id="mask3_1_410" style="mask-type:luminance" maskUnits="userSpaceOnUse" x="40" y="40" width="108" height="110">
<path d="M40 40H148V149.333H40V40Z" fill="white"/>
</mask>
<g mask="url(#mask3_1_410)">
<mask id="mask4_1_410" style="mask-type:luminance" maskUnits="userSpaceOnUse" x="-11" y="-11" width="315" height="314">
<path d="M-10.9323 146L146.042 -10.9792L303.021 146L146.042 302.979L-10.9323 146Z" fill="white"/>
</mask>
<g mask="url(#mask4_1_410)">
<mask id="mask5_1_410" style="mask-type:luminance" maskUnits="userSpaceOnUse" x="-11" y="-11" width="315" height="314">
<path d="M-10.9323 146L146.042 -10.9792L303.021 146L146.042 302.979L-10.9323 146Z" fill="white"/>
</mask>
<g mask="url(#mask5_1_410)">
<path d="M40.1146 94.9479L94.651 40.4166L147.771 93.5364L93.2344 148.073L40.1146 94.9479Z" fill="#5DE7FF"/>
</g>
</g>
</g>
<mask id="mask6_1_410" style="mask-type:luminance" maskUnits="userSpaceOnUse" x="93" y="0" width="107" height="95">
<path d="M93.3334 0H200V94.6667H93.3334V0Z" fill="white"/>
</mask>
<g mask="url(#mask6_1_410)">
<mask id="mask7_1_410" style="mask-type:luminance" maskUnits="userSpaceOnUse" x="-11" y="-11" width="315" height="314">
<path d="M-10.9323 146L146.042 -10.9792L303.021 146L146.042 302.979L-10.9323 146Z" fill="white"/>
</mask>
<g mask="url(#mask7_1_410)">
<mask id="mask8_1_410" style="mask-type:luminance" maskUnits="userSpaceOnUse" x="-11" y="-11" width="315" height="314">
<path d="M-10.9323 146L146.042 -10.9792L303.021 146L146.042 302.979L-10.9323 146Z" fill="white"/>
</mask>
<g mask="url(#mask8_1_410)">
<path d="M93.9584 41.1094L127.208 7.85938C137.599 -2.53125 154.49 -2.53125 164.88 7.85938L199.167 42.1406L147.078 94.2292L93.9584 41.1094Z" fill="#5DE7FF"/>
</g>
</g>
</g>
<mask id="mask9_1_410" style="mask-type:luminance" maskUnits="userSpaceOnUse" x="41" y="145" width="107" height="107">
<path d="M41.3334 145.333H148V252H41.3334V145.333Z" fill="white"/>
</mask>
<g mask="url(#mask9_1_410)">
<mask id="mask10_1_410" style="mask-type:luminance" maskUnits="userSpaceOnUse" x="-11" y="-11" width="315" height="314">
<path d="M-10.9323 146L146.042 -10.9791L303.021 146L146.042 302.979L-10.9323 146Z" fill="white"/>
</mask>
<g mask="url(#mask10_1_410)">
<mask id="mask11_1_410" style="mask-type:luminance" maskUnits="userSpaceOnUse" x="-11" y="-11" width="315" height="314">
<path d="M-10.9323 146L146.042 -10.9791L303.021 146L146.042 302.979L-10.9323 146Z" fill="white"/>
</mask>
<g mask="url(#mask11_1_410)">
<path d="M41.4948 198.432L93.9271 146L147.047 199.12L94.6198 251.552L41.4948 198.432Z" fill="#5DE7FF"/>
</g>
</g>
</g>
<mask id="mask12_1_410" style="mask-type:luminance" maskUnits="userSpaceOnUse" x="92" y="92" width="110" height="108">
<path d="M92 92H201.333V200H92V92Z" fill="white"/>
</mask>
<g mask="url(#mask12_1_410)">
<mask id="mask13_1_410" style="mask-type:luminance" maskUnits="userSpaceOnUse" x="-11" y="-11" width="315" height="314">
<path d="M-10.9323 146L146.042 -10.9792L303.021 146L146.042 302.979L-10.9323 146Z" fill="white"/>
</mask>
<g mask="url(#mask13_1_410)">
<mask id="mask14_1_410" style="mask-type:luminance" maskUnits="userSpaceOnUse" x="-11" y="-11" width="315" height="314">
<path d="M-10.9323 146L146.042 -10.9792L303.021 146L146.042 302.979L-10.9323 146Z" fill="white"/>
</mask>
<g mask="url(#mask14_1_410)">
<path d="M93.2344 146.693L147.078 92.8489L200.203 145.969L146.359 199.812L93.2344 146.693Z" fill="#5DE7FF"/>
</g>
</g>
</g>
<mask id="mask15_1_410" style="mask-type:luminance" maskUnits="userSpaceOnUse" x="145" y="41" width="107" height="106">
<path d="M145.333 41.3334H252V146.667H145.333V41.3334Z" fill="white"/>
</mask>
<g mask="url(#mask15_1_410)">
<mask id="mask16_1_410" style="mask-type:luminance" maskUnits="userSpaceOnUse" x="-11" y="-11" width="315" height="314">
<path d="M-10.9323 146L146.042 -10.9791L303.021 146L146.042 302.979L-10.9323 146Z" fill="white"/>
</mask>
<g mask="url(#mask16_1_410)">
<mask id="mask17_1_410" style="mask-type:luminance" maskUnits="userSpaceOnUse" x="-11" y="-11" width="315" height="314">
<path d="M-10.9323 146L146.042 -10.9791L303.021 146L146.042 302.979L-10.9323 146Z" fill="white"/>
</mask>
<g mask="url(#mask17_1_410)">
<path d="M146.391 93.5365L198.474 41.4532L251.594 94.573L199.51 146.662L146.391 93.5365Z" fill="#5DE7FF"/>
</g>
</g>
</g>
<mask id="mask18_1_410" style="mask-type:luminance" maskUnits="userSpaceOnUse" x="93" y="197" width="106" height="95">
<path d="M93.3334 197.333H198.667V292H93.3334V197.333Z" fill="white"/>
</mask>
<g mask="url(#mask18_1_410)">
<mask id="mask19_1_410" style="mask-type:luminance" maskUnits="userSpaceOnUse" x="-11" y="-11" width="315" height="314">
<path d="M-10.9323 146L146.042 -10.9791L303.021 146L146.042 302.979L-10.9323 146Z" fill="white"/>
</mask>
<g mask="url(#mask19_1_410)">
<mask id="mask20_1_410" style="mask-type:luminance" maskUnits="userSpaceOnUse" x="-11" y="-11" width="315" height="314">
<path d="M-10.9323 146L146.042 -10.9791L303.021 146L146.042 302.979L-10.9323 146Z" fill="white"/>
</mask>
<g mask="url(#mask20_1_410)">
<path d="M93.9584 250.891L146.391 198.464L198.474 250.547L164.88 284.141C154.49 294.531 137.599 294.531 127.208 284.141L93.9584 250.891Z" fill="#5DE7FF"/>
</g>
</g>
</g>
<mask id="mask21_1_410" style="mask-type:luminance" maskUnits="userSpaceOnUse" x="145" y="144" width="107" height="108">
<path d="M145.333 144H252V252H145.333V144Z" fill="white"/>
</mask>
<g mask="url(#mask21_1_410)">
<mask id="mask22_1_410" style="mask-type:luminance" maskUnits="userSpaceOnUse" x="-11" y="-11" width="315" height="314">
<path d="M-10.9323 146L146.042 -10.9791L303.021 146L146.042 302.979L-10.9323 146Z" fill="white"/>
</mask>
<g mask="url(#mask22_1_410)">
<mask id="mask23_1_410" style="mask-type:luminance" maskUnits="userSpaceOnUse" x="-11" y="-11" width="315" height="314">
<path d="M-10.9323 146L146.042 -10.9791L303.021 146L146.042 302.979L-10.9323 146Z" fill="white"/>
</mask>
<g mask="url(#mask23_1_410)">
<path d="M146.042 198.807L199.542 145.307L251.625 197.396L198.13 250.891L146.042 198.807Z" fill="#5DE7FF"/>
</g>
</g>
</g>
<mask id="mask24_1_410" style="mask-type:luminance" maskUnits="userSpaceOnUse" x="198" y="93" width="94" height="106">
<path d="M198.667 93.3334H292V198.667H198.667V93.3334Z" fill="white"/>
</mask>
<g mask="url(#mask24_1_410)">
<mask id="mask25_1_410" style="mask-type:luminance" maskUnits="userSpaceOnUse" x="-11" y="-11" width="315" height="314">
<path d="M-10.9323 146L146.042 -10.9791L303.021 146L146.042 302.979L-10.9323 146Z" fill="white"/>
</mask>
<g mask="url(#mask25_1_410)">
<mask id="mask26_1_410" style="mask-type:luminance" maskUnits="userSpaceOnUse" x="-11" y="-11" width="315" height="314">
<path d="M-10.9323 146L146.042 -10.9791L303.021 146L146.042 302.979L-10.9323 146Z" fill="white"/>
</mask>
<g mask="url(#mask26_1_410)">
<path d="M198.849 146L250.937 93.9167L284.182 127.161C294.578 137.552 294.578 154.443 284.182 164.839L250.937 198.083L198.849 146Z" fill="#5DE7FF"/>
</g>
</g>
</g>
<mask id="mask27_1_410" style="mask-type:luminance" maskUnits="userSpaceOnUse" x="74" y="165" width="145" height="69">
<path d="M74.3334 165.193H218.448V233.068H74.3334V165.193Z" fill="white"/>
</mask>
<g mask="url(#mask27_1_410)">
<mask id="mask28_1_410" style="mask-type:luminance" maskUnits="userSpaceOnUse" x="74" y="165" width="144" height="68">
<path d="M146 232.307L217.667 165.193H74.3334L146 232.307Z" fill="white"/>
</mask>
<g mask="url(#mask28_1_410)">
<path d="M74.3334 165.193H217.516V232.135H74.3334V165.193Z" fill="black"/>
</g>
</g>
</svg>
