<svg width="40" height="40" viewBox="0 0 40 40" fill="none" xmlns="http://www.w3.org/2000/svg">
<circle cx="20" cy="20" r="20" fill="#5CD1E9"/>
<path d="M21.0438 11.9525C21.1134 11.8997 21.1753 11.8375 21.2276 11.7675H24.4301L24.4738 11.7662C24.7007 11.7547 24.9281 11.7547 25.1551 11.7662H25.2026C25.9142 11.7647 26.6172 11.9223 27.2601 12.2275C28.4346 12.6881 29.4506 13.4792 30.1851 14.505C30.7411 15.2817 31.1193 16.1713 31.293 17.1105C31.4667 18.0498 31.4315 19.0158 31.1901 19.94L27.0888 15.8937C26.9133 15.7206 26.6766 15.6236 26.4301 15.6237H20.4988C20.2946 15.6247 20.0961 15.6913 19.9326 15.8137L17.5776 17.5987C17.4511 17.6953 17.3068 17.7659 17.1529 17.8066C16.9991 17.8473 16.8388 17.8572 16.6811 17.8358C16.5234 17.8145 16.3715 17.7622 16.2341 17.6821C16.0966 17.6019 15.9763 17.4954 15.8801 17.3687C15.7843 17.2442 15.7141 17.1019 15.6736 16.95C15.6331 16.7982 15.6231 16.6398 15.6441 16.4841C15.6652 16.3284 15.7168 16.1783 15.7962 16.0427C15.8755 15.907 15.9809 15.7884 16.1063 15.6937L21.0438 11.9525ZM14.8726 25.795L14.8563 25.8112L13.6388 27.0212L13.6226 27.0362C13.4093 27.239 13.1256 27.3508 12.8314 27.348C12.5372 27.3452 12.2556 27.228 12.0463 27.0212C11.9417 26.9176 11.8587 26.7942 11.8021 26.6583C11.7454 26.5224 11.7163 26.3766 11.7163 26.2294C11.7163 26.0821 11.7454 25.9363 11.8021 25.8004C11.8587 25.6645 11.9417 25.5412 12.0463 25.4375L13.2638 24.2275C13.4759 24.0175 13.7622 23.8997 14.0607 23.8997C14.3591 23.8997 14.6455 24.0175 14.8576 24.2275C15.0658 24.4342 15.1842 24.7147 15.187 25.0082C15.1898 25.3016 15.0768 25.5843 14.8726 25.795ZM14.5101 27.9175C14.3059 28.1283 14.1932 28.4111 14.1962 28.7046C14.1993 28.998 14.3179 29.2784 14.5263 29.485C14.9663 29.9225 15.6788 29.9225 16.1201 29.485L17.3376 28.2762C17.4558 28.1592 17.5464 28.0172 17.6026 27.8606C17.6588 27.704 17.6793 27.5368 17.6625 27.3713C17.6457 27.2058 17.5921 27.0461 17.5056 26.904C17.4191 26.7619 17.3019 26.6409 17.1626 26.55C16.949 26.4095 16.6942 26.3453 16.4395 26.368C16.1849 26.3907 15.9454 26.4989 15.7601 26.675L15.7438 26.6925L14.5263 27.9012L14.5101 27.9175ZM11.8751 22.26C11.9796 22.3637 12.0626 22.487 12.1193 22.6229C12.1759 22.7588 12.2051 22.9046 12.2051 23.0519C12.2051 23.1991 12.1759 23.3449 12.1193 23.4808C12.0626 23.6167 11.9796 23.7401 11.8751 23.8437L10.6588 25.0537C10.4467 25.2641 10.1601 25.3822 9.86131 25.3822C9.56256 25.3822 9.27592 25.2641 9.06381 25.0537C8.95923 24.9501 8.87622 24.8267 8.81958 24.6908C8.76293 24.5549 8.73376 24.4091 8.73376 24.2619C8.73376 24.1146 8.76293 23.9688 8.81958 23.8329C8.87622 23.697 8.95923 23.5737 9.06381 23.47L10.2826 22.26C10.4946 22.05 10.781 21.9322 11.0794 21.9322C11.3779 21.9322 11.663 22.05 11.8751 22.26ZM19.8176 29.1562C19.9221 29.2599 20.0051 29.3833 20.0618 29.5192C20.1184 29.6551 20.1476 29.8009 20.1476 29.9481C20.1476 30.0954 20.1184 30.2412 20.0618 30.3771C20.0051 30.513 19.9221 30.6363 19.8176 30.74L18.6001 31.95C18.3886 32.1612 18.102 32.2798 17.8032 32.2798C17.5043 32.2798 17.2177 32.1612 17.0063 31.95C16.8403 31.7854 16.7302 31.5728 16.6916 31.3422C16.653 31.1116 16.6879 30.8747 16.7913 30.665L16.7926 30.6625C16.8471 30.5527 16.9193 30.4526 17.0063 30.3662L18.2238 29.1562C18.4359 28.9462 18.7222 28.8284 19.0207 28.8284C19.3191 28.8284 19.6055 28.9462 19.8176 29.1562Z" fill="#F3F3F3"/>
<path d="M11.68 14.0388C12.51 13.2142 13.5164 12.5889 14.6234 12.2102C15.7303 11.8315 16.9089 11.7092 18.07 11.8525L14.9737 14.2C14.6514 14.4439 14.3804 14.7492 14.1765 15.0982C13.9726 15.4473 13.8397 15.8332 13.7856 16.2338C13.7314 16.6344 13.7571 17.0417 13.861 17.4324C13.965 17.8231 14.1452 18.1893 14.3912 18.51C14.8881 19.1576 15.6208 19.5824 16.4297 19.6918C17.2385 19.8011 18.0578 19.5862 18.7087 19.0938L20.8137 17.5H26.045L30.4287 21.825C30.4429 21.8424 30.4579 21.8591 30.4737 21.875L31.9112 23.3125C32.2346 23.6404 32.4199 24.0798 32.429 24.5402C32.438 25.0006 32.2702 25.447 31.9599 25.7873C31.6497 26.1276 31.2208 26.336 30.7615 26.3696C30.3022 26.4031 29.8476 26.2592 29.4912 25.9675L29.3712 25.8475C29.348 25.8239 29.3229 25.8022 29.2962 25.7825L27.93 24.4175C27.8723 24.3578 27.8034 24.3102 27.7271 24.2774C27.6509 24.2447 27.5689 24.2274 27.4859 24.2267C27.4029 24.226 27.3206 24.2418 27.2438 24.2732C27.167 24.3047 27.0972 24.3511 27.0385 24.4098C26.9798 24.4684 26.9334 24.5382 26.902 24.615C26.8706 24.6918 26.8547 24.7741 26.8555 24.8571C26.8562 24.9401 26.8734 25.0221 26.9062 25.0984C26.9389 25.1746 26.9865 25.2436 27.0462 25.3013L28.4837 26.7388C28.5362 26.79 28.5887 26.84 28.6437 26.8875L28.6987 26.9425C28.9199 27.1848 29.0392 27.5031 29.0317 27.8311C29.0242 28.1591 28.8906 28.4716 28.6586 28.7036C28.4266 28.9356 28.1141 29.0692 27.7861 29.0767C27.4581 29.0842 27.1398 28.9649 26.8975 28.7438L26.685 28.5325C26.5968 28.4446 26.4844 28.385 26.3622 28.3614C26.24 28.3378 26.1135 28.3512 25.9989 28.3999C25.8843 28.4487 25.787 28.5305 25.7192 28.635C25.6515 28.7395 25.6165 28.8618 25.6187 28.9863C25.6168 29.0708 25.6322 29.1548 25.6637 29.2333C25.6953 29.3117 25.7425 29.3829 25.8025 29.4425L26.0812 29.7213C26.1961 29.8294 26.2881 29.9595 26.3518 30.1039C26.4154 30.2483 26.4494 30.404 26.4518 30.5617C26.4542 30.7195 26.4249 30.8761 26.3656 31.0223C26.3063 31.1686 26.2183 31.3014 26.1067 31.413C25.9951 31.5245 25.8623 31.6126 25.7161 31.6718C25.5698 31.7311 25.4132 31.7604 25.2555 31.7581C25.0977 31.7557 24.942 31.7217 24.7976 31.658C24.6533 31.5944 24.5231 31.5024 24.415 31.3875H24.4125L24.3987 31.3713L24.1362 31.1088C24.0786 31.0491 24.0096 31.0014 23.9334 30.9687C23.8571 30.9359 23.7751 30.9187 23.6921 30.918C23.6091 30.9173 23.5268 30.9331 23.45 30.9645C23.3732 30.9959 23.3034 31.0423 23.2447 31.101C23.1861 31.1597 23.1397 31.2295 23.1082 31.3063C23.0768 31.3831 23.061 31.4654 23.0617 31.5484C23.0624 31.6314 23.0797 31.7134 23.1124 31.7896C23.1452 31.8659 23.1928 31.9349 23.2525 31.9925L23.525 32.2663C23.6372 32.3771 23.7265 32.5089 23.7877 32.6542C23.849 32.7995 23.881 32.9554 23.882 33.1131C23.883 33.2708 23.8529 33.4271 23.7935 33.5732C23.734 33.7193 23.6464 33.8522 23.5356 33.9644C23.4248 34.0766 23.293 34.1659 23.1477 34.2271C23.0024 34.2884 22.8464 34.3204 22.6888 34.3214C22.5311 34.3224 22.3747 34.2923 22.2287 34.2329C22.0826 34.1734 21.9497 34.0858 21.8375 33.975L20.0487 32.275L20.7037 31.6225C20.9246 31.4036 21.0999 31.143 21.2196 30.856C21.3392 30.5689 21.4008 30.261 21.4008 29.95C21.4008 29.639 21.3392 29.3311 21.2196 29.044C21.0999 28.757 20.9246 28.4964 20.7037 28.2775C20.4702 28.0451 20.191 27.8637 19.8837 27.7447C19.5765 27.6258 19.2479 27.5718 18.9187 27.5863C18.9333 27.2583 18.879 26.9308 18.7593 26.6251C18.6396 26.3194 18.4572 26.0422 18.2237 25.8113C17.9901 25.5791 17.7108 25.3979 17.4036 25.2792C17.0963 25.1604 16.7678 25.1066 16.4387 25.1213C16.4531 24.7935 16.3986 24.4663 16.2789 24.1608C16.1592 23.8554 15.9769 23.5783 15.7437 23.3475C15.4468 23.0525 15.0776 22.8407 14.6731 22.7332C14.2686 22.6257 13.8429 22.6263 13.4387 22.735C13.369 22.2211 13.1312 21.7447 12.7625 21.38C12.3513 20.9724 11.8062 20.7278 11.2283 20.6914C10.6504 20.6551 10.079 20.8296 9.61999 21.1825C9.32493 19.9151 9.35934 18.5933 9.71994 17.343C10.0805 16.0927 10.7553 14.9543 11.68 14.0388Z" fill="#F3F3F3"/>
</svg>
