<svg width="40" height="40" viewBox="0 0 40 40" fill="none" xmlns="http://www.w3.org/2000/svg">
<circle cx="20" cy="20" r="20" fill="#5CD1E9"/>
<path d="M18.125 15C17.6325 15 17.1449 15.097 16.6899 15.2855C16.235 15.4739 15.8216 15.7501 15.4733 16.0983C15.1251 16.4466 14.8489 16.86 14.6605 17.3149C14.472 17.7699 14.375 18.2575 14.375 18.75C14.375 19.2425 14.472 19.7301 14.6605 20.1851C14.8489 20.64 15.1251 21.0534 15.4733 21.4017C15.8216 21.7499 16.235 22.0261 16.6899 22.2145C17.1449 22.403 17.6325 22.5 18.125 22.5C19.1196 22.5 20.0734 22.1049 20.7767 21.4017C21.4799 20.6984 21.875 19.7446 21.875 18.75C21.875 17.7554 21.4799 16.8016 20.7767 16.0983C20.0734 15.3951 19.1196 15 18.125 15ZM16.25 18.75C16.25 18.2527 16.4475 17.7758 16.7992 17.4242C17.1508 17.0725 17.6277 16.875 18.125 16.875C18.6223 16.875 19.0992 17.0725 19.4508 17.4242C19.8025 17.7758 20 18.2527 20 18.75C20 19.2473 19.8025 19.7242 19.4508 20.0758C19.0992 20.4275 18.6223 20.625 18.125 20.625C17.6277 20.625 17.1508 20.4275 16.7992 20.0758C16.4475 19.7242 16.25 19.2473 16.25 18.75Z" fill="#F3F3F3"/>
<path d="M7.5 14.0625C7.5 13.3166 7.79632 12.6012 8.32376 12.0738C8.85121 11.5463 9.56658 11.25 10.3125 11.25H25.9375C26.3068 11.25 26.6726 11.3227 27.0138 11.4641C27.355 11.6054 27.6651 11.8126 27.9262 12.0738C28.1874 12.3349 28.3946 12.645 28.5359 12.9862C28.6773 13.3274 28.75 13.6932 28.75 14.0625V23.4375C28.75 23.8068 28.6773 24.1726 28.5359 24.5138C28.3946 24.855 28.1874 25.1651 27.9262 25.4262C27.6651 25.6874 27.355 25.8946 27.0138 26.0359C26.6726 26.1773 26.3068 26.25 25.9375 26.25H10.3125C9.56658 26.25 8.85121 25.9537 8.32376 25.4262C7.79632 24.8988 7.5 24.1834 7.5 23.4375V14.0625ZM10.3125 13.125C10.0639 13.125 9.8254 13.2238 9.64959 13.3996C9.47377 13.5754 9.375 13.8139 9.375 14.0625V15H10.3125C10.5611 15 10.7996 14.9012 10.9754 14.7254C11.1512 14.5496 11.25 14.3111 11.25 14.0625V13.125H10.3125ZM9.375 20.625H10.3125C11.0584 20.625 11.7738 20.9213 12.3012 21.4488C12.8287 21.9762 13.125 22.6916 13.125 23.4375V24.375H23.125V23.4375C23.125 22.6916 23.4213 21.9762 23.9488 21.4488C24.4762 20.9213 25.1916 20.625 25.9375 20.625H26.875V16.875H25.9375C25.1916 16.875 24.4762 16.5787 23.9488 16.0512C23.4213 15.5238 23.125 14.8084 23.125 14.0625V13.125H13.125V14.0625C13.125 14.4318 13.0523 14.7976 12.9109 15.1388C12.7696 15.48 12.5624 15.7901 12.3012 16.0512C12.0401 16.3124 11.73 16.5196 11.3888 16.6609C11.0476 16.8023 10.6818 16.875 10.3125 16.875H9.375V20.625ZM26.875 15V14.0625C26.875 13.8139 26.7762 13.5754 26.6004 13.3996C26.4246 13.2238 26.1861 13.125 25.9375 13.125H25V14.0625C25 14.58 25.42 15 25.9375 15H26.875ZM26.875 22.5H25.9375C25.6889 22.5 25.4504 22.5988 25.2746 22.7746C25.0988 22.9504 25 23.1889 25 23.4375V24.375H25.9375C26.1861 24.375 26.4246 24.2762 26.6004 24.1004C26.7762 23.9246 26.875 23.6861 26.875 23.4375V22.5ZM9.375 23.4375C9.375 23.955 9.795 24.375 10.3125 24.375H11.25V23.4375C11.25 23.1889 11.1512 22.9504 10.9754 22.7746C10.7996 22.5988 10.5611 22.5 10.3125 22.5H9.375V23.4375Z" fill="#F3F3F3"/>
<path d="M10.5012 28.125C10.8304 28.6953 11.3039 29.1689 11.8742 29.4981C12.4445 29.8272 13.0915 30.0003 13.75 30H26.5625C27.3422 30 28.1143 29.8464 28.8347 29.548C29.555 29.2496 30.2096 28.8123 30.7609 28.2609C31.3123 27.7096 31.7496 27.0551 32.048 26.3347C32.3464 25.6143 32.5 24.8422 32.5 24.0625V17.5C32.5 16.1125 31.7462 14.9 30.625 14.2513V24.0625C30.625 25.1399 30.197 26.1733 29.4351 26.9351C28.6732 27.697 27.6399 28.125 26.5625 28.125H10.5012Z" fill="#F3F3F3"/>
</svg>
