<svg width="33" height="8" viewBox="0 0 33 8" fill="none" xmlns="http://www.w3.org/2000/svg">
<path d="M7.38289 3.64583C7.38289 4.12461 7.28741 4.5987 7.1019 5.04103C6.91639 5.48337 6.64448 5.88528 6.30169 6.22383C5.95891 6.56237 5.55197 6.83092 5.1041 7.01414C4.65624 7.19736 4.17621 7.29167 3.69145 7.29167C3.20668 7.29167 2.72666 7.19736 2.27879 7.01414C1.83092 6.83092 1.42398 6.56237 1.0812 6.22383C0.738417 5.88528 0.466507 5.48337 0.280994 5.04103C0.0954818 4.5987 -1.02157e-08 4.12461 0 3.64583C2.06316e-08 2.6789 0.388919 1.75157 1.0812 1.06784C1.77348 0.384113 2.71241 0 3.69145 0C4.67048 0 5.60941 0.384113 6.30169 1.06784C6.99397 1.75157 7.38289 2.6789 7.38289 3.64583ZM20.0393 3.64583C20.0393 4.61277 19.6504 5.5401 18.9581 6.22383C18.2658 6.90755 17.3269 7.29167 16.3478 7.29167C15.3688 7.29167 14.4299 6.90755 13.7376 6.22383C13.0453 5.5401 12.6564 4.61277 12.6564 3.64583C12.6564 2.6789 13.0453 1.75157 13.7376 1.06784C14.4299 0.384113 15.3688 0 16.3478 0C17.3269 0 18.2658 0.384113 18.9581 1.06784C19.6504 1.75157 20.0393 2.6789 20.0393 3.64583ZM29.0042 7.29167C29.9833 7.29167 30.9222 6.90755 31.6145 6.22383C32.3068 5.5401 32.6957 4.61277 32.6957 3.64583C32.6957 2.6789 32.3068 1.75157 31.6145 1.06784C30.9222 0.384113 29.9833 0 29.0042 0C28.0252 0 27.0863 0.384113 26.394 1.06784C25.7017 1.75157 25.3128 2.6789 25.3128 3.64583C25.3128 4.61277 25.7017 5.5401 26.394 6.22383C27.0863 6.90755 28.0252 7.29167 29.0042 7.29167Z" fill="#5DAAB9"/>
</svg>
