<svg width="40" height="40" viewBox="0 0 40 40" fill="none" xmlns="http://www.w3.org/2000/svg">
<circle cx="20" cy="20" r="20" fill="#5CD1E9"/>
<path d="M8 11.6875C8 11.4389 8.09877 11.2004 8.27459 11.0246C8.4504 10.8488 8.68886 10.75 8.9375 10.75C12.2663 10.75 15.51 9.57125 18.6875 7.1875C18.8498 7.06579 19.0472 7 19.25 7C19.4528 7 19.6502 7.06579 19.8125 7.1875C22.99 9.57125 26.2337 10.75 29.5625 10.75C29.8111 10.75 30.0496 10.8488 30.2254 11.0246C30.4012 11.2004 30.5 11.4389 30.5 11.6875V18.25C30.5 18.6725 30.4825 19.0875 30.45 19.495C28.7952 18.4533 26.8202 18.0433 24.8875 18.3403C22.9548 18.6372 21.1941 19.6212 19.9283 21.1117C18.6626 22.6021 17.9769 24.4991 17.9969 26.4543C18.017 28.4096 18.7415 30.2921 20.0375 31.7563L19.5938 31.935C19.3729 32.0221 19.1271 32.0221 18.9062 31.935C11.6975 29.095 8 24.5 8 18.25V11.6875ZM33 26.375C33 24.5516 32.2757 22.803 30.9864 21.5136C29.697 20.2243 27.9484 19.5 26.125 19.5C24.3016 19.5 22.553 20.2243 21.2636 21.5136C19.9743 22.803 19.25 24.5516 19.25 26.375C19.25 28.1984 19.9743 29.947 21.2636 31.2364C22.553 32.5257 24.3016 33.25 26.125 33.25C27.9484 33.25 29.697 32.5257 30.9864 31.2364C32.2757 29.947 33 28.1984 33 26.375ZM30.3175 23.4325C30.3757 23.4906 30.4219 23.5595 30.4534 23.6355C30.4849 23.7114 30.5011 23.7928 30.5011 23.875C30.5011 23.9572 30.4849 24.0386 30.4534 24.1145C30.4219 24.1905 30.3757 24.2594 30.3175 24.3175L25.3175 29.3175C25.2594 29.3757 25.1905 29.4219 25.1145 29.4534C25.0386 29.4849 24.9572 29.5011 24.875 29.5011C24.7928 29.5011 24.7114 29.4849 24.6355 29.4534C24.5595 29.4219 24.4906 29.3757 24.4325 29.3175L21.9325 26.8175C21.8151 26.7001 21.7492 26.541 21.7492 26.375C21.7492 26.209 21.8151 26.0499 21.9325 25.9325C22.0499 25.8151 22.209 25.7492 22.375 25.7492C22.541 25.7492 22.7001 25.8151 22.8175 25.9325L24.875 27.9912L29.4325 23.4325C29.4906 23.3743 29.5595 23.3281 29.6355 23.2966C29.7114 23.2651 29.7928 23.2489 29.875 23.2489C29.9572 23.2489 30.0386 23.2651 30.1145 23.2966C30.1905 23.3281 30.2594 23.3743 30.3175 23.4325Z" fill="#F3F3F3"/>
</svg>
