<svg width="201" height="60" viewBox="0 0 201 60" fill="none" xmlns="http://www.w3.org/2000/svg">
<path d="M84.4497 45C81.8167 45 79.488 44.5176 77.4596 43.5529C75.4312 42.5813 73.8436 41.1549 72.7007 39.2806C71.5656 37.4063 71 35.153 71 32.5138C71 29.8608 71.5656 27.5937 72.7007 25.7194C73.8436 23.8382 75.4195 22.4118 77.4284 21.4471C79.4334 20.4824 81.7348 20 84.3249 20C90.0746 20 93.7647 21.8399 95.3874 25.5127L90.6909 28.4895H90.1604C89.5987 27.3525 88.8693 26.505 87.976 25.9537C87.0788 25.4024 85.8618 25.1268 84.3249 25.1268C82.3472 25.1268 80.8065 25.7332 79.7064 26.946C78.6025 28.1519 78.0525 30.0055 78.0525 32.5138C78.0525 34.9876 78.6064 36.8343 79.722 38.054C80.8455 39.2668 82.4214 39.8732 84.4497 39.8732C85.9359 39.8732 87.1959 39.5218 88.2257 38.812C89.2554 38.1057 89.9927 37.0893 90.4413 35.7663L90.9562 35.7249L95.8243 38.0816C95.1378 40.1213 93.8583 41.7854 91.986 43.0706C90.1136 44.3591 87.6015 45 84.4497 45Z" fill="black"/>
<path d="M100.594 44.5452V20.4548H107.241V24.038L107.771 24.1207C108.427 22.7804 109.289 21.7985 110.361 21.1714C111.43 20.5478 112.733 20.2343 114.262 20.2343C115.811 20.2343 116.993 20.4685 117.804 20.9371L116.649 26.1466L116.119 26.2431C115.682 26.0777 115.253 25.964 114.839 25.8985C114.422 25.8262 113.919 25.7883 113.326 25.7883C111.411 25.7883 109.948 26.3809 108.941 27.5661C107.943 28.7513 107.444 30.6532 107.444 33.2717V44.5452H100.594Z" fill="black"/>
<path d="M133.901 45C131.225 45 128.881 44.5176 126.864 43.5529C124.844 42.5813 123.279 41.1618 122.168 39.2944C121.052 37.4201 120.498 35.1599 120.498 32.5138C120.498 29.8608 121.052 27.5937 122.168 25.7194C123.279 23.8382 124.844 22.4118 126.864 21.4471C128.881 20.4824 131.225 20 133.901 20C136.573 20 138.917 20.4824 140.938 21.4471C142.955 22.4118 144.527 23.8382 145.65 25.7194C146.774 27.5937 147.335 29.8608 147.335 32.5138C147.335 35.1599 146.774 37.4201 145.65 39.2944C144.527 41.1618 142.955 42.5813 140.938 43.5529C138.917 44.5176 136.573 45 133.901 45ZM133.901 39.8732C138.133 39.8732 140.251 37.4201 140.251 32.5138C140.251 29.9607 139.705 28.0899 138.613 26.9046C137.529 25.7194 135.961 25.1268 133.901 25.1268C129.665 25.1268 127.551 27.5903 127.551 32.5138C127.551 37.4201 129.665 39.8732 133.901 39.8732Z" fill="black"/>
<path d="M164.381 44.5452H157.219L150.728 20.4548H157.094L161.089 36.7448H161.619L166.815 20.4548H172.744L178.111 36.7448H178.626L182.48 20.4548H188.675L182.262 44.5452H175.069L169.904 28.145H169.374L164.381 44.5452Z" fill="black"/>
<path d="M196.6 44.7381C195.726 44.7381 194.954 44.5796 194.291 44.2695C193.624 43.9595 193.109 43.5253 192.746 42.9741C192.391 42.4228 192.216 41.7992 192.216 41.0998C192.216 40.3934 192.391 39.7629 192.746 39.2117C193.109 38.6604 193.624 38.2263 194.291 37.9024C194.954 37.582 195.726 37.42 196.6 37.42C197.493 37.42 198.273 37.5785 198.94 37.8886C199.604 38.2022 200.115 38.6397 200.47 39.1979C200.821 39.7492 201 40.3762 201 41.0722C201 42.1403 200.598 43.0154 199.799 43.7045C198.995 44.3936 197.93 44.7381 196.6 44.7381Z" fill="black"/>
<mask id="mask0_118_38" style="mask-type:luminance" maskUnits="userSpaceOnUse" x="0" y="19" width="20" height="23">
<path d="M0 19.1781H19.4521V41.0959H0V19.1781Z" fill="white"/>
</mask>
<g mask="url(#mask0_118_38)">
<mask id="mask1_118_38" style="mask-type:luminance" maskUnits="userSpaceOnUse" x="-3" y="-3" width="66" height="66">
<path d="M-2.24634 30L30.0086 -2.25598L62.2646 30L30.0086 62.256L-2.24634 30Z" fill="white"/>
</mask>
<g mask="url(#mask1_118_38)">
<mask id="mask2_118_38" style="mask-type:luminance" maskUnits="userSpaceOnUse" x="-3" y="-3" width="66" height="66">
<path d="M-2.24634 30L30.0086 -2.25598L62.2646 30L30.0086 62.256L-2.24634 30Z" fill="white"/>
</mask>
<g mask="url(#mask2_118_38)">
<path d="M1.62351 26.129L8.52634 19.2262L19.4424 30.1423L8.66868 40.915L1.62351 33.8709C-0.511548 31.7348 -0.511548 28.2641 1.62351 26.129Z" fill="#5DE7FF"/>
</g>
</g>
</g>
<mask id="mask3_118_38" style="mask-type:luminance" maskUnits="userSpaceOnUse" x="8" y="8" width="23" height="23">
<path d="M8.21924 8.21924H30.411V30.685H8.21924V8.21924Z" fill="white"/>
</mask>
<g mask="url(#mask3_118_38)">
<mask id="mask4_118_38" style="mask-type:luminance" maskUnits="userSpaceOnUse" x="-3" y="-3" width="66" height="66">
<path d="M-2.24634 30L30.0086 -2.25598L62.2646 30L30.0086 62.256L-2.24634 30Z" fill="white"/>
</mask>
<g mask="url(#mask4_118_38)">
<mask id="mask5_118_38" style="mask-type:luminance" maskUnits="userSpaceOnUse" x="-3" y="-3" width="66" height="66">
<path d="M-2.24634 30L30.0086 -2.25598L62.2646 30L30.0086 62.256L-2.24634 30Z" fill="white"/>
</mask>
<g mask="url(#mask5_118_38)">
<path d="M8.2428 19.5099L19.4489 8.30481L30.3639 19.2198L19.1578 30.426L8.2428 19.5099Z" fill="#5DE7FF"/>
</g>
</g>
</g>
<mask id="mask6_118_38" style="mask-type:luminance" maskUnits="userSpaceOnUse" x="19" y="0" width="23" height="20">
<path d="M19.1781 0H41.0959V19.4521H19.1781V0Z" fill="white"/>
</mask>
<g mask="url(#mask6_118_38)">
<mask id="mask7_118_38" style="mask-type:luminance" maskUnits="userSpaceOnUse" x="-3" y="-3" width="66" height="66">
<path d="M-2.24634 30L30.0086 -2.25598L62.2646 30L30.0086 62.256L-2.24634 30Z" fill="white"/>
</mask>
<g mask="url(#mask7_118_38)">
<mask id="mask8_118_38" style="mask-type:luminance" maskUnits="userSpaceOnUse" x="-3" y="-3" width="66" height="66">
<path d="M-2.24634 30L30.0086 -2.25598L62.2646 30L30.0086 62.256L-2.24634 30Z" fill="white"/>
</mask>
<g mask="url(#mask8_118_38)">
<path d="M19.3065 8.44716L26.1387 1.61497C28.2738 -0.520093 31.7444 -0.520093 33.8795 1.61497L40.9247 8.65906L30.2215 19.3622L19.3065 8.44716Z" fill="#5DE7FF"/>
</g>
</g>
</g>
<mask id="mask9_118_38" style="mask-type:luminance" maskUnits="userSpaceOnUse" x="8" y="29" width="23" height="23">
<path d="M8.49316 29.863H30.411V51.7808H8.49316V29.863Z" fill="white"/>
</mask>
<g mask="url(#mask9_118_38)">
<mask id="mask10_118_38" style="mask-type:luminance" maskUnits="userSpaceOnUse" x="-3" y="-3" width="66" height="66">
<path d="M-2.24634 30L30.0086 -2.25598L62.2646 30L30.0086 62.256L-2.24634 30Z" fill="white"/>
</mask>
<g mask="url(#mask10_118_38)">
<mask id="mask11_118_38" style="mask-type:luminance" maskUnits="userSpaceOnUse" x="-3" y="-3" width="66" height="66">
<path d="M-2.24634 30L30.0086 -2.25598L62.2646 30L30.0086 62.256L-2.24634 30Z" fill="white"/>
</mask>
<g mask="url(#mask11_118_38)">
<path d="M8.52637 40.7738L19.3001 30L30.2152 40.915L19.4425 51.6888L8.52637 40.7738Z" fill="#5DE7FF"/>
</g>
</g>
</g>
<mask id="mask12_118_38" style="mask-type:luminance" maskUnits="userSpaceOnUse" x="18" y="18" width="24" height="24">
<path d="M18.9041 18.9041H41.3698V41.0958H18.9041V18.9041Z" fill="white"/>
</mask>
<g mask="url(#mask12_118_38)">
<mask id="mask13_118_38" style="mask-type:luminance" maskUnits="userSpaceOnUse" x="-3" y="-3" width="66" height="66">
<path d="M-2.24646 29.9999L30.0085 -2.2561L62.2645 29.9999L30.0085 62.2559L-2.24646 29.9999Z" fill="white"/>
</mask>
<g mask="url(#mask13_118_38)">
<mask id="mask14_118_38" style="mask-type:luminance" maskUnits="userSpaceOnUse" x="-3" y="-3" width="66" height="66">
<path d="M-2.24646 29.9999L30.0085 -2.2561L62.2645 29.9999L30.0085 62.2559L-2.24646 29.9999Z" fill="white"/>
</mask>
<g mask="url(#mask14_118_38)">
<path d="M19.1577 30.1423L30.2215 19.0785L41.1376 29.9935L30.0738 41.0573L19.1577 30.1423Z" fill="#5DE7FF"/>
</g>
</g>
</g>
<mask id="mask15_118_38" style="mask-type:luminance" maskUnits="userSpaceOnUse" x="29" y="8" width="23" height="23">
<path d="M29.863 8.49316H51.7808V30.137H29.863V8.49316Z" fill="white"/>
</mask>
<g mask="url(#mask15_118_38)">
<mask id="mask16_118_38" style="mask-type:luminance" maskUnits="userSpaceOnUse" x="-3" y="-3" width="66" height="66">
<path d="M-2.24634 30L30.0086 -2.25598L62.2646 30L30.0086 62.256L-2.24634 30Z" fill="white"/>
</mask>
<g mask="url(#mask16_118_38)">
<mask id="mask17_118_38" style="mask-type:luminance" maskUnits="userSpaceOnUse" x="-3" y="-3" width="66" height="66">
<path d="M-2.24634 30L30.0086 -2.25598L62.2646 30L30.0086 62.256L-2.24634 30Z" fill="white"/>
</mask>
<g mask="url(#mask17_118_38)">
<path d="M30.0803 19.2199L40.7824 8.51782L51.6974 19.4328L40.9953 30.136L30.0803 19.2199Z" fill="#5DE7FF"/>
</g>
</g>
</g>
<mask id="mask18_118_38" style="mask-type:luminance" maskUnits="userSpaceOnUse" x="19" y="40" width="22" height="20">
<path d="M19.1781 40.548H40.8219V60H19.1781V40.548Z" fill="white"/>
</mask>
<g mask="url(#mask18_118_38)">
<mask id="mask19_118_38" style="mask-type:luminance" maskUnits="userSpaceOnUse" x="-3" y="-3" width="66" height="66">
<path d="M-2.24634 30L30.0086 -2.25598L62.2646 30L30.0086 62.256L-2.24634 30Z" fill="white"/>
</mask>
<g mask="url(#mask19_118_38)">
<mask id="mask20_118_38" style="mask-type:luminance" maskUnits="userSpaceOnUse" x="-3" y="-3" width="66" height="66">
<path d="M-2.24634 30L30.0086 -2.25598L62.2646 30L30.0086 62.256L-2.24634 30Z" fill="white"/>
</mask>
<g mask="url(#mask20_118_38)">
<path d="M19.3065 51.5528L30.0803 40.7802L40.7823 51.4822L33.8795 58.385C31.7444 60.5201 28.2738 60.5201 26.1387 58.385L19.3065 51.5528Z" fill="#5DE7FF"/>
</g>
</g>
</g>
<mask id="mask21_118_38" style="mask-type:luminance" maskUnits="userSpaceOnUse" x="29" y="29" width="23" height="23">
<path d="M29.863 29.589H51.7808V51.7808H29.863V29.589Z" fill="white"/>
</mask>
<g mask="url(#mask21_118_38)">
<mask id="mask22_118_38" style="mask-type:luminance" maskUnits="userSpaceOnUse" x="-3" y="-3" width="66" height="66">
<path d="M-2.24634 29.9999L30.0086 -2.2561L62.2646 29.9999L30.0086 62.2559L-2.24634 29.9999Z" fill="white"/>
</mask>
<g mask="url(#mask22_118_38)">
<mask id="mask23_118_38" style="mask-type:luminance" maskUnits="userSpaceOnUse" x="-3" y="-3" width="66" height="66">
<path d="M-2.24634 29.9999L30.0086 -2.2561L62.2646 29.9999L30.0086 62.2559L-2.24634 29.9999Z" fill="white"/>
</mask>
<g mask="url(#mask23_118_38)">
<path d="M30.0085 40.8507L41.0017 29.8575L51.7038 40.5607L40.7117 51.5527L30.0085 40.8507Z" fill="#5DE7FF"/>
</g>
</g>
</g>
<mask id="mask24_118_38" style="mask-type:luminance" maskUnits="userSpaceOnUse" x="40" y="19" width="20" height="22">
<path d="M40.8219 19.1781H60V40.8219H40.8219V19.1781Z" fill="white"/>
</mask>
<g mask="url(#mask24_118_38)">
<mask id="mask25_118_38" style="mask-type:luminance" maskUnits="userSpaceOnUse" x="-3" y="-3" width="66" height="66">
<path d="M-2.24634 30L30.0086 -2.25598L62.2646 30L30.0086 62.256L-2.24634 30Z" fill="white"/>
</mask>
<g mask="url(#mask25_118_38)">
<mask id="mask26_118_38" style="mask-type:luminance" maskUnits="userSpaceOnUse" x="-3" y="-3" width="66" height="66">
<path d="M-2.24634 30L30.0086 -2.25598L62.2646 30L30.0086 62.256L-2.24634 30Z" fill="white"/>
</mask>
<g mask="url(#mask26_118_38)">
<path d="M40.8594 30L51.5625 19.298L58.3936 26.1291C60.5298 28.2642 60.5298 31.7348 58.3936 33.871L51.5625 40.7021L40.8594 30Z" fill="#5DE7FF"/>
</g>
</g>
</g>
<mask id="mask27_118_38" style="mask-type:luminance" maskUnits="userSpaceOnUse" x="15" y="33" width="30" height="15">
<path d="M15.2739 33.9437H44.8865V47.8906H15.2739V33.9437Z" fill="white"/>
</mask>
<g mask="url(#mask27_118_38)">
<mask id="mask28_118_38" style="mask-type:luminance" maskUnits="userSpaceOnUse" x="15" y="33" width="30" height="15">
<path d="M30 47.7344L44.726 33.9437H15.2739L30 47.7344Z" fill="white"/>
</mask>
<g mask="url(#mask28_118_38)">
<path d="M15.2739 33.9437H44.6949V47.6991H15.2739V33.9437Z" fill="white"/>
</g>
</g>
</svg>
