<svg width="287" height="108" viewBox="0 0 287 108" fill="none" xmlns="http://www.w3.org/2000/svg">
<path d="M130.569 71.4019C127.053 71.4019 123.944 70.6727 121.235 69.2144C118.527 67.7456 116.407 65.5894 114.881 62.7561C113.366 59.9227 112.61 56.5165 112.61 52.5269C112.61 48.5165 113.366 45.0894 114.881 42.2561C116.407 39.4123 118.512 37.2561 121.194 35.7977C123.871 34.3394 126.944 33.6102 130.402 33.6102C138.079 33.6102 143.006 36.3915 145.173 41.9436L138.902 46.4436H138.194C137.444 44.7248 136.47 43.4436 135.277 42.6102C134.079 41.7769 132.454 41.3602 130.402 41.3602C127.762 41.3602 125.704 42.2769 124.235 44.1102C122.762 45.9331 122.027 48.7352 122.027 52.5269C122.027 56.2665 122.767 59.0581 124.256 60.9019C125.756 62.7352 127.86 63.6519 130.569 63.6519C132.553 63.6519 134.235 63.1206 135.61 62.0477C136.985 60.98 137.97 59.4436 138.569 57.4436L139.256 57.3811L145.756 60.9436C144.84 64.0269 143.131 66.5425 140.631 68.4852C138.131 70.4331 134.777 71.4019 130.569 71.4019Z" fill="white"/>
<path d="M152.125 70.7144V34.2977H161V39.7144L161.708 39.8394C162.583 37.8133 163.734 36.3289 165.166 35.381C166.594 34.4383 168.333 33.9644 170.375 33.9644C172.442 33.9644 174.021 34.3185 175.104 35.0269L173.562 42.9019L172.854 43.0477C172.271 42.7977 171.698 42.6258 171.146 42.5269C170.588 42.4175 169.916 42.3602 169.125 42.3602C166.567 42.3602 164.614 43.256 163.271 45.0477C161.937 46.8394 161.271 49.7144 161.271 53.6727V70.7144H152.125Z" fill="white"/>
<path d="M196.597 71.4019C193.024 71.4019 189.894 70.6727 187.201 69.2144C184.503 67.7456 182.415 65.5998 180.93 62.7769C179.441 59.9436 178.701 56.5269 178.701 52.5269C178.701 48.5165 179.441 45.0894 180.93 42.2561C182.415 39.4123 184.503 37.2561 187.201 35.7977C189.894 34.3394 193.024 33.6102 196.597 33.6102C200.165 33.6102 203.295 34.3394 205.993 35.7977C208.686 37.2561 210.785 39.4123 212.285 42.2561C213.785 45.0894 214.535 48.5165 214.535 52.5269C214.535 56.5269 213.785 59.9436 212.285 62.7769C210.785 65.5998 208.686 67.7456 205.993 69.2144C203.295 70.6727 200.165 71.4019 196.597 71.4019ZM196.597 63.6519C202.248 63.6519 205.076 59.9436 205.076 52.5269C205.076 48.6675 204.347 45.8394 202.889 44.0477C201.441 42.2561 199.347 41.3602 196.597 41.3602C190.941 41.3602 188.118 45.0842 188.118 52.5269C188.118 59.9436 190.941 63.6519 196.597 63.6519Z" fill="white"/>
<path d="M237.294 70.7144H227.732L219.065 34.2977H227.565L232.898 58.9227H233.607L240.544 34.2977H248.461L255.627 58.9227H256.315L261.461 34.2977H269.732L261.169 70.7144H251.565L244.669 45.9227H243.961L237.294 70.7144Z" fill="white"/>
<path d="M280.314 71.0061C279.147 71.0061 278.116 70.7665 277.23 70.2978C276.34 69.829 275.652 69.1728 275.168 68.3394C274.694 67.5061 274.46 66.5634 274.46 65.5061C274.46 64.4384 274.694 63.4853 275.168 62.6519C275.652 61.8186 276.34 61.1624 277.23 60.6728C278.116 60.1884 279.147 59.9436 280.314 59.9436C281.507 59.9436 282.548 60.1832 283.439 60.6519C284.324 61.1259 285.007 61.7874 285.48 62.6311C285.949 63.4644 286.189 64.4124 286.189 65.4644C286.189 67.079 285.652 68.4019 284.585 69.4436C283.512 70.4853 282.09 71.0061 280.314 71.0061Z" fill="white"/>
<mask id="mask0_161_4" style="mask-type:luminance" maskUnits="userSpaceOnUse" x="0" y="34" width="36" height="40">
<path d="M0 34.6666H36V73.3333H0V34.6666Z" fill="white"/>
</mask>
<g mask="url(#mask0_161_4)">
<mask id="mask1_161_4" style="mask-type:luminance" maskUnits="userSpaceOnUse" x="-3" y="-3" width="114" height="114">
<path d="M-2.78644 53.9739L54.0417 -2.85425L110.875 53.9739L54.0417 110.802L-2.78644 53.9739Z" fill="white"/>
</mask>
<g mask="url(#mask1_161_4)">
<mask id="mask2_161_4" style="mask-type:luminance" maskUnits="userSpaceOnUse" x="-3" y="-3" width="114" height="114">
<path d="M-2.78644 53.9739L54.0417 -2.85425L110.875 53.9739L54.0417 110.802L-2.78644 53.9739Z" fill="white"/>
</mask>
<g mask="url(#mask2_161_4)">
<path d="M4.0365 47.1562L16.198 34.9948L35.4271 54.2239L16.448 73.2031L4.0365 60.7916C0.270874 57.0312 0.270874 50.9166 4.0365 47.1562Z" fill="#5DE7FF"/>
</g>
</g>
</g>
<mask id="mask3_161_4" style="mask-type:luminance" maskUnits="userSpaceOnUse" x="14" y="14" width="41" height="42">
<path d="M14.6667 14.6666H54.6667V56H14.6667V14.6666Z" fill="white"/>
</mask>
<g mask="url(#mask3_161_4)">
<mask id="mask4_161_4" style="mask-type:luminance" maskUnits="userSpaceOnUse" x="-3" y="-3" width="114" height="114">
<path d="M-2.78644 53.9739L54.0417 -2.85425L110.875 53.9739L54.0417 110.802L-2.78644 53.9739Z" fill="white"/>
</mask>
<g mask="url(#mask4_161_4)">
<mask id="mask5_161_4" style="mask-type:luminance" maskUnits="userSpaceOnUse" x="-3" y="-3" width="114" height="114">
<path d="M-2.78644 53.9739L54.0417 -2.85425L110.875 53.9739L54.0417 110.802L-2.78644 53.9739Z" fill="white"/>
</mask>
<g mask="url(#mask5_161_4)">
<path d="M15.6979 35.4947L35.4375 15.7499L54.6667 34.9843L34.9271 54.7238L15.6979 35.4947Z" fill="#5DE7FF"/>
</g>
</g>
</g>
<mask id="mask6_161_4" style="mask-type:luminance" maskUnits="userSpaceOnUse" x="34" y="0" width="40" height="36">
<path d="M34.6667 0H73.3334V36H34.6667V0Z" fill="white"/>
</mask>
<g mask="url(#mask6_161_4)">
<mask id="mask7_161_4" style="mask-type:luminance" maskUnits="userSpaceOnUse" x="-3" y="-3" width="114" height="114">
<path d="M-2.78644 53.974L54.0417 -2.85413L110.875 53.974L54.0417 110.802L-2.78644 53.974Z" fill="white"/>
</mask>
<g mask="url(#mask7_161_4)">
<mask id="mask8_161_4" style="mask-type:luminance" maskUnits="userSpaceOnUse" x="-3" y="-3" width="114" height="114">
<path d="M-2.78644 53.974L54.0417 -2.85413L110.875 53.974L54.0417 110.802L-2.78644 53.974Z" fill="white"/>
</mask>
<g mask="url(#mask8_161_4)">
<path d="M35.1875 16.0001L47.224 3.96362C50.9844 0.203206 57.099 0.203206 60.8646 3.96362L73.276 16.3751L54.4167 35.2345L35.1875 16.0001Z" fill="#5DE7FF"/>
</g>
</g>
</g>
<mask id="mask9_161_4" style="mask-type:luminance" maskUnits="userSpaceOnUse" x="16" y="53" width="39" height="41">
<path d="M16 53.3334H54.6667V93.3334H16V53.3334Z" fill="white"/>
</mask>
<g mask="url(#mask9_161_4)">
<mask id="mask10_161_4" style="mask-type:luminance" maskUnits="userSpaceOnUse" x="-3" y="-3" width="114" height="114">
<path d="M-2.78644 53.974L54.0417 -2.85413L110.875 53.974L54.0417 110.802L-2.78644 53.974Z" fill="white"/>
</mask>
<g mask="url(#mask10_161_4)">
<mask id="mask11_161_4" style="mask-type:luminance" maskUnits="userSpaceOnUse" x="-3" y="-3" width="114" height="114">
<path d="M-2.78644 53.974L54.0417 -2.85413L110.875 53.974L54.0417 110.802L-2.78644 53.974Z" fill="white"/>
</mask>
<g mask="url(#mask11_161_4)">
<path d="M16.1979 72.9532L35.1771 53.974L54.4063 73.2032L35.4271 92.1875L16.1979 72.9532Z" fill="#5DE7FF"/>
</g>
</g>
</g>
<mask id="mask12_161_4" style="mask-type:luminance" maskUnits="userSpaceOnUse" x="34" y="34" width="41" height="41">
<path d="M34.6667 34.6666H74.6667V74.6666H34.6667V34.6666Z" fill="white"/>
</mask>
<g mask="url(#mask12_161_4)">
<mask id="mask13_161_4" style="mask-type:luminance" maskUnits="userSpaceOnUse" x="-3" y="-3" width="114" height="114">
<path d="M-2.78644 53.9739L54.0417 -2.85425L110.875 53.9739L54.0417 110.802L-2.78644 53.9739Z" fill="white"/>
</mask>
<g mask="url(#mask13_161_4)">
<mask id="mask14_161_4" style="mask-type:luminance" maskUnits="userSpaceOnUse" x="-3" y="-3" width="114" height="114">
<path d="M-2.78644 53.9739L54.0417 -2.85425L110.875 53.9739L54.0417 110.802L-2.78644 53.9739Z" fill="white"/>
</mask>
<g mask="url(#mask14_161_4)">
<path d="M34.9271 54.2238L54.4167 34.7343L73.6511 53.9634L54.1563 73.453L34.9271 54.2238Z" fill="#5DE7FF"/>
</g>
</g>
</g>
<mask id="mask15_161_4" style="mask-type:luminance" maskUnits="userSpaceOnUse" x="53" y="16" width="41" height="39">
<path d="M53.3334 16H93.3334V54.6667H53.3334V16Z" fill="white"/>
</mask>
<g mask="url(#mask15_161_4)">
<mask id="mask16_161_4" style="mask-type:luminance" maskUnits="userSpaceOnUse" x="-3" y="-3" width="114" height="114">
<path d="M-2.78644 53.974L54.0417 -2.85413L110.875 53.974L54.0417 110.802L-2.78644 53.974Z" fill="white"/>
</mask>
<g mask="url(#mask16_161_4)">
<mask id="mask17_161_4" style="mask-type:luminance" maskUnits="userSpaceOnUse" x="-3" y="-3" width="114" height="114">
<path d="M-2.78644 53.974L54.0417 -2.85413L110.875 53.974L54.0417 110.802L-2.78644 53.974Z" fill="white"/>
</mask>
<g mask="url(#mask17_161_4)">
<path d="M54.1667 34.9844L73.0261 16.125L92.2552 35.3594L73.4011 54.2135L54.1667 34.9844Z" fill="#5DE7FF"/>
</g>
</g>
</g>
<mask id="mask18_161_4" style="mask-type:luminance" maskUnits="userSpaceOnUse" x="34" y="72" width="40" height="36">
<path d="M34.6667 72H73.3334V108H34.6667V72Z" fill="white"/>
</mask>
<g mask="url(#mask18_161_4)">
<mask id="mask19_161_4" style="mask-type:luminance" maskUnits="userSpaceOnUse" x="-3" y="-3" width="114" height="114">
<path d="M-2.78644 53.974L54.0417 -2.85413L110.875 53.974L54.0417 110.802L-2.78644 53.974Z" fill="white"/>
</mask>
<g mask="url(#mask19_161_4)">
<mask id="mask20_161_4" style="mask-type:luminance" maskUnits="userSpaceOnUse" x="-3" y="-3" width="114" height="114">
<path d="M-2.78644 53.974L54.0417 -2.85413L110.875 53.974L54.0417 110.802L-2.78644 53.974Z" fill="white"/>
</mask>
<g mask="url(#mask20_161_4)">
<path d="M35.1875 91.9479L54.1667 72.9688L73.026 91.8229L60.8646 103.984C57.099 107.745 50.9844 107.745 47.224 103.984L35.1875 91.9479Z" fill="#5DE7FF"/>
</g>
</g>
</g>
<mask id="mask21_161_4" style="mask-type:luminance" maskUnits="userSpaceOnUse" x="53" y="53" width="41" height="39">
<path d="M53.3334 53.3334H93.3334V92H53.3334V53.3334Z" fill="white"/>
</mask>
<g mask="url(#mask21_161_4)">
<mask id="mask22_161_4" style="mask-type:luminance" maskUnits="userSpaceOnUse" x="-3" y="-3" width="114" height="114">
<path d="M-2.78644 53.974L54.0417 -2.85413L110.875 53.974L54.0417 110.802L-2.78644 53.974Z" fill="white"/>
</mask>
<g mask="url(#mask22_161_4)">
<mask id="mask23_161_4" style="mask-type:luminance" maskUnits="userSpaceOnUse" x="-3" y="-3" width="114" height="114">
<path d="M-2.78644 53.974L54.0417 -2.85413L110.875 53.974L54.0417 110.802L-2.78644 53.974Z" fill="white"/>
</mask>
<g mask="url(#mask23_161_4)">
<path d="M54.0417 73.0938L73.4115 53.724L92.2656 72.5782L72.9011 91.948L54.0417 73.0938Z" fill="#5DE7FF"/>
</g>
</g>
</g>
<mask id="mask24_161_4" style="mask-type:luminance" maskUnits="userSpaceOnUse" x="72" y="34" width="36" height="40">
<path d="M72 34.6666H108V73.3333H72V34.6666Z" fill="white"/>
</mask>
<g mask="url(#mask24_161_4)">
<mask id="mask25_161_4" style="mask-type:luminance" maskUnits="userSpaceOnUse" x="-3" y="-3" width="114" height="114">
<path d="M-2.78644 53.9739L54.0417 -2.85425L110.875 53.9739L54.0417 110.802L-2.78644 53.9739Z" fill="white"/>
</mask>
<g mask="url(#mask25_161_4)">
<mask id="mask26_161_4" style="mask-type:luminance" maskUnits="userSpaceOnUse" x="-3" y="-3" width="114" height="114">
<path d="M-2.78644 53.9739L54.0417 -2.85425L110.875 53.9739L54.0417 110.802L-2.78644 53.9739Z" fill="white"/>
</mask>
<g mask="url(#mask26_161_4)">
<path d="M73.1615 53.9739L92.0157 35.1198L104.052 47.1562C107.818 50.9166 107.818 57.0312 104.052 60.7916L92.0157 72.8281L73.1615 53.9739Z" fill="#5DE7FF"/>
</g>
</g>
</g>
<mask id="mask27_161_4" style="mask-type:luminance" maskUnits="userSpaceOnUse" x="27" y="60" width="52" height="26">
<path d="M27.4271 60.8021H78.6667V85.1875H27.4271V60.8021Z" fill="white"/>
</mask>
<g mask="url(#mask27_161_4)">
<mask id="mask28_161_4" style="mask-type:luminance" maskUnits="userSpaceOnUse" x="27" y="60" width="52" height="25">
<path d="M52.8282 84.5886L78.2292 60.8021H27.4271L52.8282 84.5886Z" fill="white"/>
</mask>
<g mask="url(#mask28_161_4)">
<path d="M27.4271 60.8021H78.1719V84.5313H27.4271V60.8021Z" fill="white"/>
</g>
</g>
</svg>
